<svg xmlns="http://www.w3.org/2000/svg" xmlns:xlink="http://www.w3.org/1999/xlink" contentStyleType="text/css" data-diagram-type="DESCRIPTION" height="1219px" preserveAspectRatio="none" style="width:1534px;height:1219px;background:#FFFFFF;" version="1.1" viewBox="0 0 1534 1219" width="1534px" zoomAndPan="magnify"><title>Polyglot Service Mesh Architecture (Standalone)</title><defs/><g><g class="title" data-source-line="1"><text fill="#000000" font-family="sans-serif" font-size="14" font-weight="bold" lengthAdjust="spacing" textLength="385.041" x="567.4795" y="22.9951">Polyglot Service Mesh Architecture (Standalone)</text></g><!--cluster External Systems--><g class="cluster" data-entity="External Systems" data-source-line="49" data-uid="ent0004" id="cluster_External Systems"><path d="M1342,374.7969 L1475.4229,374.7969 A7.5,7.5 0 0 1 1480.4229,379.7969 L1487.4229,397.0938 L1522,397.0938 A5,5 0 0 1 1527,402.0938 L1527,606.7969 A5,5 0 0 1 1522,611.7969 L1342,611.7969 A5,5 0 0 1 1337,606.7969 L1337,379.7969 A5,5 0 0 1 1342,374.7969" fill="none" style="stroke:#000000;stroke-width:1.5;"/><line style="stroke:#000000;stroke-width:1.5;" x1="1337" x2="1487.4229" y1="397.0938" y2="397.0938"/><text fill="#000000" font-family="sans-serif" font-size="14" font-weight="bold" lengthAdjust="spacing" textLength="137.4229" x="1341" y="389.792">External Systems</text></g><!--cluster Kubernetes Cluster--><g class="cluster" data-entity="Kubernetes Cluster" data-source-line="54" data-uid="ent0007" id="cluster_Kubernetes Cluster"><rect fill="#EDF2F7" height="1079" rx="5" ry="5" style="stroke:#2D3748;stroke-width:1;" width="1306" x="7" y="134.7969"/><text fill="#000000" font-family="sans-serif" font-size="14" font-weight="bold" lengthAdjust="spacing" textLength="152.5576" x="583.7212" y="149.792">Kubernetes Cluster</text></g><!--cluster Namespace: db--><g class="cluster" data-entity="Namespace. db" data-source-line="57" data-uid="ent0008" id="cluster_Namespace. db"><path d="M1114,1060.7969 L1231.3584,1060.7969 A7.5,7.5 0 0 1 1236.3584,1065.7969 L1243.3584,1083.0938 L1284,1083.0938 A5,5 0 0 1 1289,1088.0938 L1289,1151.7969 A5,5 0 0 1 1284,1156.7969 L1114,1156.7969 A5,5 0 0 1 1109,1151.7969 L1109,1065.7969 A5,5 0 0 1 1114,1060.7969" fill="none" style="stroke:#000000;stroke-width:1.5;"/><line style="stroke:#000000;stroke-width:1.5;" x1="1109" x2="1243.3584" y1="1083.0938" y2="1083.0938"/><text fill="#000000" font-family="sans-serif" font-size="14" font-weight="bold" lengthAdjust="spacing" textLength="121.3584" x="1113" y="1075.792">Namespace: db</text></g><!--cluster Namespace: istio-system--><g class="cluster" data-entity="Namespace. istio-system" data-source-line="62" data-uid="ent0010" id="cluster_Namespace. istio-system"><path d="M557,177.7969 L750.9346,177.7969 A7.5,7.5 0 0 1 755.9346,182.7969 L762.9346,200.0938 L771,200.0938 A5,5 0 0 1 776,205.0938 L776,286.7969 A5,5 0 0 1 771,291.7969 L557,291.7969 A5,5 0 0 1 552,286.7969 L552,182.7969 A5,5 0 0 1 557,177.7969" fill="none" style="stroke:#000000;stroke-width:1.5;"/><line style="stroke:#000000;stroke-width:1.5;" x1="552" x2="762.9346" y1="200.0938" y2="200.0938"/><text fill="#000000" font-family="sans-serif" font-size="14" font-weight="bold" lengthAdjust="spacing" textLength="197.9346" x="556" y="192.792">Namespace: istio-system</text></g><!--cluster Namespace: prod\n(istio-injection=enabled)--><g class="cluster" data-entity="Namespace. prod.n.istio-injection.enabled." data-source-line="67" data-uid="ent0012" id="cluster_Namespace. prod.n.istio-injection.enabled."><path d="M36,315.7969 L228.2598,315.7969 A7.5,7.5 0 0 1 233.2598,320.7969 L240.2598,354.3906 L1080,354.3906 A5,5 0 0 1 1085,359.3906 L1085,1184.7969 A5,5 0 0 1 1080,1189.7969 L36,1189.7969 A5,5 0 0 1 31,1184.7969 L31,320.7969 A5,5 0 0 1 36,315.7969" fill="none" style="stroke:#000000;stroke-width:1.5;"/><line style="stroke:#000000;stroke-width:1.5;" x1="31" x2="240.2598" y1="354.3906" y2="354.3906"/><text fill="#000000" font-family="sans-serif" font-size="14" font-weight="bold" lengthAdjust="spacing" textLength="137.8809" x="64.1895" y="330.792">Namespace: prod</text><text fill="#000000" font-family="sans-serif" font-size="14" font-weight="bold" lengthAdjust="spacing" textLength="196.2598" x="35" y="347.0889">(istio-injection=enabled)</text></g><!--cluster Istio Configuration--><g class="cluster" data-entity="Istio Configuration" data-source-line="69" data-uid="ent0013" id="cluster_Istio Configuration"><rect fill="#F7FAFC" height="114" rx="5" ry="5" style="stroke:#2D3748;stroke-width:1;" width="367" x="574" y="374.7969"/><text fill="#000000" font-family="sans-serif" font-size="14" font-weight="bold" lengthAdjust="spacing" textLength="147.6904" x="683.6548" y="389.792">Istio Configuration</text></g><!--cluster K8s Configs--><g class="cluster" data-entity="K8s Configs" data-source-line="74" data-uid="ent0016" id="cluster_K8s Configs"><rect fill="#FFF5F5" height="114" rx="5" ry="5" style="stroke:#2D3748;stroke-width:1;" width="403" x="160" y="1051.7969"/><text fill="#000000" font-family="sans-serif" font-size="14" font-weight="bold" lengthAdjust="spacing" textLength="92.9004" x="315.0498" y="1066.792">K8s Configs</text></g><!--cluster DB Automation--><g class="cluster" data-entity="DB Automation" data-source-line="79" data-uid="ent0019" id="cluster_DB Automation"><rect fill="#EDF2F7" height="169" rx="5" ry="5" style="stroke:#2D3748;stroke-width:1;" width="296" x="55" y="858.7969"/><text fill="#000000" font-family="sans-serif" font-size="14" font-weight="bold" lengthAdjust="spacing" textLength="119.3896" x="143.3052" y="873.792">DB Automation</text></g><!--cluster Job Pod: db-migration--><g class="cluster" data-entity="Job Pod. db-migration" data-source-line="80" data-uid="ent0020" id="cluster_Job Pod. db-migration"><polygon fill="#E6FFFA" points="79,911.7969,89,901.7969,327,901.7969,327,993.7969,317,1003.7969,79,1003.7969,79,911.7969" style="stroke:#38B2AC;stroke-width:1;"/><line style="stroke:#38B2AC;stroke-width:1;" x1="317" x2="327" y1="911.7969" y2="901.7969"/><line style="stroke:#38B2AC;stroke-width:1;" x1="79" x2="317" y1="911.7969" y2="911.7969"/><line style="stroke:#38B2AC;stroke-width:1;" x1="317" x2="317" y1="911.7969" y2="1003.7969"/><text fill="#000000" font-family="sans-serif" font-size="14" font-weight="bold" lengthAdjust="spacing" textLength="172.7852" x="112.6074" y="927.792">Job Pod: db-migration</text></g><!--cluster Pod: Frontend--><g class="cluster" data-entity="Pod. Frontend" data-source-line="88" data-uid="ent0023" id="cluster_Pod. Frontend"><polygon fill="#E6FFFA" points="684,645.7969,694,635.7969,1061,635.7969,1061,727.7969,1051,737.7969,684,737.7969,684,645.7969" style="stroke:#38B2AC;stroke-width:1;"/><line style="stroke:#38B2AC;stroke-width:1;" x1="1051" x2="1061" y1="645.7969" y2="635.7969"/><line style="stroke:#38B2AC;stroke-width:1;" x1="684" x2="1051" y1="645.7969" y2="645.7969"/><line style="stroke:#38B2AC;stroke-width:1;" x1="1051" x2="1051" y1="645.7969" y2="737.7969"/><text fill="#000000" font-family="sans-serif" font-size="14" font-weight="bold" lengthAdjust="spacing" textLength="112.6016" x="812.1992" y="661.792">Pod: Frontend</text></g><!--cluster Golang Microservices--><g class="cluster" data-entity="Golang Microservices" data-source-line="94" data-uid="ent0026" id="cluster_Golang Microservices"><rect fill="#EDF2F7" height="266" rx="5" ry="5" style="stroke:#2D3748;stroke-width:1;" width="686" x="375" y="761.7969"/><text fill="#000000" font-family="sans-serif" font-size="14" font-weight="bold" lengthAdjust="spacing" textLength="168.5537" x="633.7231" y="776.792">Golang Microservices</text></g><!--cluster Pod: Auth--><g class="cluster" data-entity="Pod. Auth" data-source-line="97" data-uid="ent0028" id="cluster_Pod. Auth"><polygon fill="#E6FFFA" points="399,911.7969,409,901.7969,706,901.7969,706,993.7969,696,1003.7969,399,1003.7969,399,911.7969" style="stroke:#38B2AC;stroke-width:1;"/><line style="stroke:#38B2AC;stroke-width:1;" x1="696" x2="706" y1="911.7969" y2="901.7969"/><line style="stroke:#38B2AC;stroke-width:1;" x1="399" x2="696" y1="911.7969" y2="911.7969"/><line style="stroke:#38B2AC;stroke-width:1;" x1="696" x2="696" y1="911.7969" y2="1003.7969"/><text fill="#000000" font-family="sans-serif" font-size="14" font-weight="bold" lengthAdjust="spacing" textLength="77.834" x="509.583" y="927.792">Pod: Auth</text></g><!--cluster Pod: Entry--><g class="cluster" data-entity="Pod. Entry" data-source-line="104" data-uid="ent0032" id="cluster_Pod. Entry"><polygon fill="#E6FFFA" points="730,911.7969,740,901.7969,1037,901.7969,1037,993.7969,1027,1003.7969,730,1003.7969,730,911.7969" style="stroke:#38B2AC;stroke-width:1;"/><line style="stroke:#38B2AC;stroke-width:1;" x1="1027" x2="1037" y1="911.7969" y2="901.7969"/><line style="stroke:#38B2AC;stroke-width:1;" x1="730" x2="1027" y1="911.7969" y2="911.7969"/><line style="stroke:#38B2AC;stroke-width:1;" x1="1027" x2="1027" y1="911.7969" y2="1003.7969"/><text fill="#000000" font-family="sans-serif" font-size="14" font-weight="bold" lengthAdjust="spacing" textLength="82.626" x="838.187" y="927.792">Pod: Entry</text></g><!--entity github--><g class="entity" data-entity="github" data-source-line="50" data-uid="ent0005" id="entity_github"><rect fill="#FFFFFF" height="62.5938" rx="5" ry="5" style="stroke:#4299E1;stroke-width:0.5;" width="158.3096" x="1353" y="409.7969"/><rect fill="#FFFFFF" height="10" style="stroke:#4299E1;stroke-width:0.5;" width="15" x="1491.3096" y="414.7969"/><rect fill="#FFFFFF" height="2" style="stroke:#4299E1;stroke-width:0.5;" width="4" x="1489.3096" y="416.7969"/><rect fill="#FFFFFF" height="2" style="stroke:#4299E1;stroke-width:0.5;" width="4" x="1489.3096" y="420.7969"/><text fill="#000000" font-family="sans-serif" font-size="14" lengthAdjust="spacing" textLength="88.7578" x="1382.7759" y="442.792">GitHub Repo</text><text fill="#000000" font-family="sans-serif" font-size="14" lengthAdjust="spacing" textLength="118.3096" x="1368" y="459.0889">(Source &amp; CI/CD)</text></g><!--entity dockerhub--><g class="entity" data-entity="dockerhub" data-source-line="51" data-uid="ent0006" id="entity_dockerhub"><rect fill="#FFFFFF" height="62.5938" rx="5" ry="5" style="stroke:#4299E1;stroke-width:0.5;" width="122.2568" x="1362" y="532.7969"/><rect fill="#FFFFFF" height="10" style="stroke:#4299E1;stroke-width:0.5;" width="15" x="1464.2568" y="537.7969"/><rect fill="#FFFFFF" height="2" style="stroke:#4299E1;stroke-width:0.5;" width="4" x="1462.2568" y="539.7969"/><rect fill="#FFFFFF" height="2" style="stroke:#4299E1;stroke-width:0.5;" width="4" x="1462.2568" y="543.7969"/><text fill="#000000" font-family="sans-serif" font-size="14" lengthAdjust="spacing" textLength="82.2568" x="1377" y="565.792">Docker Hub</text><text fill="#000000" font-family="sans-serif" font-size="14" lengthAdjust="spacing" textLength="68.8652" x="1383.6958" y="582.0889">(Registry)</text></g><!--entity db--><g class="entity" data-entity="db" data-source-line="58" data-uid="ent0009" id="entity_db"><path d="M1125.5,1105.7969 C1125.5,1095.7969 1199.0981,1095.7969 1199.0981,1095.7969 C1199.0981,1095.7969 1272.6963,1095.7969 1272.6963,1105.7969 L1272.6963,1131.0938 C1272.6963,1141.0938 1199.0981,1141.0938 1199.0981,1141.0938 C1199.0981,1141.0938 1125.5,1141.0938 1125.5,1131.0938 L1125.5,1105.7969" fill="#FBEFFF" style="stroke:#9F7AEA;stroke-width:0.5;"/><path d="M1125.5,1105.7969 C1125.5,1115.7969 1199.0981,1115.7969 1199.0981,1115.7969 C1199.0981,1115.7969 1272.6963,1115.7969 1272.6963,1105.7969" fill="none" style="stroke:#9F7AEA;stroke-width:0.5;"/><text fill="#000000" font-family="sans-serif" font-size="14" lengthAdjust="spacing" textLength="127.1963" x="1135.5" y="1132.792">PostgreSQL / TiDB</text></g><!--entity ingress_gateway--><g class="entity" data-entity="ingress_gateway" data-source-line="63" data-uid="ent0011" id="entity_ingress_gateway"><rect fill="#D6BCFA" height="62.5938" rx="5" ry="5" style="stroke:#4299E1;stroke-width:0.5;" width="190.958" x="568.5" y="212.7969"/><rect fill="#D6BCFA" height="10" style="stroke:#4299E1;stroke-width:0.5;" width="15" x="739.458" y="217.7969"/><rect fill="#D6BCFA" height="2" style="stroke:#4299E1;stroke-width:0.5;" width="4" x="737.458" y="219.7969"/><rect fill="#D6BCFA" height="2" style="stroke:#4299E1;stroke-width:0.5;" width="4" x="737.458" y="223.7969"/><text fill="#000000" font-family="sans-serif" font-size="14" lengthAdjust="spacing" textLength="150.958" x="583.5" y="245.792">Istio Ingress Gateway</text><text fill="#000000" font-family="sans-serif" font-size="14" lengthAdjust="spacing" textLength="110.7969" x="603.5806" y="262.0889">(Load Balancer)</text></g><!--entity svc_frontend--><g class="entity" data-entity="svc_frontend" data-source-line="87" data-uid="ent0022" id="entity_svc_frontend"><rect fill="#EBF8FF" height="46.2969" rx="5" ry="5" style="stroke:#4299E1;stroke-width:0.5;" width="164.0176" x="700" y="541.2969"/><rect fill="#EBF8FF" height="10" style="stroke:#4299E1;stroke-width:0.5;" width="15" x="844.0176" y="546.2969"/><rect fill="#EBF8FF" height="2" style="stroke:#4299E1;stroke-width:0.5;" width="4" x="842.0176" y="548.2969"/><rect fill="#EBF8FF" height="2" style="stroke:#4299E1;stroke-width:0.5;" width="4" x="842.0176" y="552.2969"/><text fill="#000000" font-family="sans-serif" font-size="14" lengthAdjust="spacing" textLength="124.0176" x="715" y="574.292">Service: Frontend</text></g><!--entity gateway_config--><g class="entity" data-entity="gateway_config" data-source-line="70" data-uid="ent0014" id="entity_gateway_config"><rect fill="#E9D8FD" height="46.2969" rx="5" ry="5" style="stroke:#4299E1;stroke-width:0.5;" width="151.2139" x="773.5" y="418.2969"/><rect fill="#E9D8FD" height="10" style="stroke:#4299E1;stroke-width:0.5;" width="15" x="904.7139" y="423.2969"/><rect fill="#E9D8FD" height="2" style="stroke:#4299E1;stroke-width:0.5;" width="4" x="902.7139" y="425.2969"/><rect fill="#E9D8FD" height="2" style="stroke:#4299E1;stroke-width:0.5;" width="4" x="902.7139" y="429.2969"/><text fill="#000000" font-family="sans-serif" font-size="14" lengthAdjust="spacing" textLength="111.2139" x="788.5" y="451.292">Gateway Config</text></g><!--entity virtual_service--><g class="entity" data-entity="virtual_service" data-source-line="71" data-uid="ent0015" id="entity_virtual_service"><rect fill="#E9D8FD" height="62.5938" rx="5" ry="5" style="stroke:#4299E1;stroke-width:0.5;" width="148.0762" x="590" y="409.7969"/><rect fill="#E9D8FD" height="10" style="stroke:#4299E1;stroke-width:0.5;" width="15" x="718.0762" y="414.7969"/><rect fill="#E9D8FD" height="2" style="stroke:#4299E1;stroke-width:0.5;" width="4" x="716.0762" y="416.7969"/><rect fill="#E9D8FD" height="2" style="stroke:#4299E1;stroke-width:0.5;" width="4" x="716.0762" y="420.7969"/><text fill="#000000" font-family="sans-serif" font-size="14" lengthAdjust="spacing" textLength="97.7949" x="610.1406" y="442.792">VirtualService</text><text fill="#000000" font-family="sans-serif" font-size="14" lengthAdjust="spacing" textLength="108.0762" x="605" y="459.0889">(Routing Rules)</text></g><!--entity secrets--><g class="entity" data-entity="secrets" data-source-line="75" data-uid="ent0017" id="entity_secrets"><rect fill="#FED7D7" height="62.5938" rx="5" ry="5" style="stroke:#4299E1;stroke-width:0.5;" width="207.9111" x="339" y="1086.7969"/><rect fill="#FED7D7" height="10" style="stroke:#4299E1;stroke-width:0.5;" width="15" x="526.9111" y="1091.7969"/><rect fill="#FED7D7" height="2" style="stroke:#4299E1;stroke-width:0.5;" width="4" x="524.9111" y="1093.7969"/><rect fill="#FED7D7" height="2" style="stroke:#4299E1;stroke-width:0.5;" width="4" x="524.9111" y="1097.7969"/><text fill="#000000" font-family="sans-serif" font-size="14" lengthAdjust="spacing" textLength="52.3496" x="411.7808" y="1119.792">Secrets</text><text fill="#000000" font-family="sans-serif" font-size="14" lengthAdjust="spacing" textLength="167.9111" x="354" y="1136.0889">(k8s/apps/secrets.yaml)</text></g><!--entity db_configmap--><g class="entity" data-entity="db_configmap" data-source-line="76" data-uid="ent0018" id="entity_db_configmap"><rect fill="#FED7D7" height="62.5938" rx="5" ry="5" style="stroke:#4299E1;stroke-width:0.5;" width="128.4434" x="176" y="1086.7969"/><rect fill="#FED7D7" height="10" style="stroke:#4299E1;stroke-width:0.5;" width="15" x="284.4434" y="1091.7969"/><rect fill="#FED7D7" height="2" style="stroke:#4299E1;stroke-width:0.5;" width="4" x="282.4434" y="1093.7969"/><rect fill="#FED7D7" height="2" style="stroke:#4299E1;stroke-width:0.5;" width="4" x="282.4434" y="1097.7969"/><text fill="#000000" font-family="sans-serif" font-size="14" lengthAdjust="spacing" textLength="74.4639" x="197.9897" y="1119.792">ConfigMap</text><text fill="#000000" font-family="sans-serif" font-size="14" lengthAdjust="spacing" textLength="88.4434" x="191" y="1136.0889">(db-schema)</text></g><!--entity migrator--><g class="entity" data-entity="migrator" data-source-line="81" data-uid="ent0021" id="entity_migrator"><rect fill="#EBF8FF" height="46.2969" rx="5" ry="5" style="stroke:#4299E1;stroke-width:0.5;" width="178.8721" x="131.5" y="941.7969"/><rect fill="#EBF8FF" height="10" style="stroke:#4299E1;stroke-width:0.5;" width="15" x="290.3721" y="946.7969"/><rect fill="#EBF8FF" height="2" style="stroke:#4299E1;stroke-width:0.5;" width="4" x="288.3721" y="948.7969"/><rect fill="#EBF8FF" height="2" style="stroke:#4299E1;stroke-width:0.5;" width="4" x="288.3721" y="952.7969"/><text fill="#000000" font-family="sans-serif" font-size="14" lengthAdjust="spacing" textLength="138.8721" x="146.5" y="974.792">Migration Container</text></g><!--entity app_frontend--><g class="entity" data-entity="app_frontend" data-source-line="89" data-uid="ent0024" id="entity_app_frontend"><rect fill="#EBF8FF" height="46.2969" rx="5" ry="5" style="stroke:#4299E1;stroke-width:0.5;" width="165.6855" x="879" y="675.7969"/><rect fill="#EBF8FF" height="10" style="stroke:#4299E1;stroke-width:0.5;" width="15" x="1024.6855" y="680.7969"/><rect fill="#EBF8FF" height="2" style="stroke:#4299E1;stroke-width:0.5;" width="4" x="1022.6855" y="682.7969"/><rect fill="#EBF8FF" height="2" style="stroke:#4299E1;stroke-width:0.5;" width="4" x="1022.6855" y="686.7969"/><text fill="#000000" font-family="sans-serif" font-size="14" lengthAdjust="spacing" textLength="125.6855" x="894" y="708.792">App: Python/Flask</text></g><!--entity sidecar_frontend--><g class="entity" data-entity="sidecar_frontend" data-source-line="90" data-uid="ent0025" id="entity_sidecar_frontend"><rect fill="#D6BCFA" height="46.2969" rx="5" ry="5" style="stroke:#4299E1;stroke-width:0.5;" width="144.3301" x="700" y="675.7969"/><rect fill="#D6BCFA" height="10" style="stroke:#4299E1;stroke-width:0.5;" width="15" x="824.3301" y="680.7969"/><rect fill="#D6BCFA" height="2" style="stroke:#4299E1;stroke-width:0.5;" width="4" x="822.3301" y="682.7969"/><rect fill="#D6BCFA" height="2" style="stroke:#4299E1;stroke-width:0.5;" width="4" x="822.3301" y="686.7969"/><text fill="#000000" font-family="sans-serif" font-size="14" lengthAdjust="spacing" textLength="104.3301" x="715" y="708.792">Sidecar: Envoy</text></g><!--entity svc_auth--><g class="entity" data-entity="svc_auth" data-source-line="96" data-uid="ent0027" id="entity_svc_auth"><rect fill="#EBF8FF" height="46.2969" rx="5" ry="5" style="stroke:#4299E1;stroke-width:0.5;" width="133.7207" x="700" y="796.7969"/><rect fill="#EBF8FF" height="10" style="stroke:#4299E1;stroke-width:0.5;" width="15" x="813.7207" y="801.7969"/><rect fill="#EBF8FF" height="2" style="stroke:#4299E1;stroke-width:0.5;" width="4" x="811.7207" y="803.7969"/><rect fill="#EBF8FF" height="2" style="stroke:#4299E1;stroke-width:0.5;" width="4" x="811.7207" y="807.7969"/><text fill="#000000" font-family="sans-serif" font-size="14" lengthAdjust="spacing" textLength="93.7207" x="715" y="829.792">Service: Auth</text></g><!--entity svc_entry--><g class="entity" data-entity="svc_entry" data-source-line="103" data-uid="ent0031" id="entity_svc_entry"><rect fill="#EBF8FF" height="46.2969" rx="5" ry="5" style="stroke:#4299E1;stroke-width:0.5;" width="138.1572" x="869" y="796.7969"/><rect fill="#EBF8FF" height="10" style="stroke:#4299E1;stroke-width:0.5;" width="15" x="987.1572" y="801.7969"/><rect fill="#EBF8FF" height="2" style="stroke:#4299E1;stroke-width:0.5;" width="4" x="985.1572" y="803.7969"/><rect fill="#EBF8FF" height="2" style="stroke:#4299E1;stroke-width:0.5;" width="4" x="985.1572" y="807.7969"/><text fill="#000000" font-family="sans-serif" font-size="14" lengthAdjust="spacing" textLength="98.1572" x="884" y="829.792">Service: Entry</text></g><!--entity svc_others--><g class="entity" data-entity="svc_others" data-source-line="110" data-uid="ent0035" id="entity_svc_others"><rect fill="#EBF8FF" height="46.2969" rx="5" ry="5" style="stroke:#4299E1;stroke-width:0.5;" width="273.8711" x="391" y="796.7969"/><rect fill="#EBF8FF" height="10" style="stroke:#4299E1;stroke-width:0.5;" width="15" x="644.8711" y="801.7969"/><rect fill="#EBF8FF" height="2" style="stroke:#4299E1;stroke-width:0.5;" width="4" x="642.8711" y="803.7969"/><rect fill="#EBF8FF" height="2" style="stroke:#4299E1;stroke-width:0.5;" width="4" x="642.8711" y="807.7969"/><text fill="#000000" font-family="sans-serif" font-size="14" lengthAdjust="spacing" textLength="233.8711" x="406" y="829.792">Service: Other (Category/ByWho)</text></g><!--entity app_auth--><g class="entity" data-entity="app_auth" data-source-line="98" data-uid="ent0029" id="entity_app_auth"><rect fill="#EBF8FF" height="46.2969" rx="5" ry="5" style="stroke:#4299E1;stroke-width:0.5;" width="95.9316" x="415" y="941.7969"/><rect fill="#EBF8FF" height="10" style="stroke:#4299E1;stroke-width:0.5;" width="15" x="490.9316" y="946.7969"/><rect fill="#EBF8FF" height="2" style="stroke:#4299E1;stroke-width:0.5;" width="4" x="488.9316" y="948.7969"/><rect fill="#EBF8FF" height="2" style="stroke:#4299E1;stroke-width:0.5;" width="4" x="488.9316" y="952.7969"/><text fill="#000000" font-family="sans-serif" font-size="14" lengthAdjust="spacing" textLength="55.9316" x="430" y="974.792">App: Go</text></g><!--entity sidecar_auth--><g class="entity" data-entity="sidecar_auth" data-source-line="99" data-uid="ent0030" id="entity_sidecar_auth"><rect fill="#D6BCFA" height="46.2969" rx="5" ry="5" style="stroke:#4299E1;stroke-width:0.5;" width="144.3301" x="546" y="941.7969"/><rect fill="#D6BCFA" height="10" style="stroke:#4299E1;stroke-width:0.5;" width="15" x="670.3301" y="946.7969"/><rect fill="#D6BCFA" height="2" style="stroke:#4299E1;stroke-width:0.5;" width="4" x="668.3301" y="948.7969"/><rect fill="#D6BCFA" height="2" style="stroke:#4299E1;stroke-width:0.5;" width="4" x="668.3301" y="952.7969"/><text fill="#000000" font-family="sans-serif" font-size="14" lengthAdjust="spacing" textLength="104.3301" x="561" y="974.792">Sidecar: Envoy</text></g><!--entity app_entry--><g class="entity" data-entity="app_entry" data-source-line="105" data-uid="ent0033" id="entity_app_entry"><rect fill="#EBF8FF" height="46.2969" rx="5" ry="5" style="stroke:#4299E1;stroke-width:0.5;" width="95.9316" x="925" y="941.7969"/><rect fill="#EBF8FF" height="10" style="stroke:#4299E1;stroke-width:0.5;" width="15" x="1000.9316" y="946.7969"/><rect fill="#EBF8FF" height="2" style="stroke:#4299E1;stroke-width:0.5;" width="4" x="998.9316" y="948.7969"/><rect fill="#EBF8FF" height="2" style="stroke:#4299E1;stroke-width:0.5;" width="4" x="998.9316" y="952.7969"/><text fill="#000000" font-family="sans-serif" font-size="14" lengthAdjust="spacing" textLength="55.9316" x="940" y="974.792">App: Go</text></g><!--entity sidecar_entry--><g class="entity" data-entity="sidecar_entry" data-source-line="106" data-uid="ent0034" id="entity_sidecar_entry"><rect fill="#D6BCFA" height="46.2969" rx="5" ry="5" style="stroke:#4299E1;stroke-width:0.5;" width="144.3301" x="746" y="941.7969"/><rect fill="#D6BCFA" height="10" style="stroke:#4299E1;stroke-width:0.5;" width="15" x="870.3301" y="946.7969"/><rect fill="#D6BCFA" height="2" style="stroke:#4299E1;stroke-width:0.5;" width="4" x="868.3301" y="948.7969"/><rect fill="#D6BCFA" height="2" style="stroke:#4299E1;stroke-width:0.5;" width="4" x="868.3301" y="952.7969"/><text fill="#000000" font-family="sans-serif" font-size="14" lengthAdjust="spacing" textLength="104.3301" x="761" y="974.792">Sidecar: Envoy</text></g><!--entity user--><g class="entity" data-entity="user" data-source-line="46" data-uid="ent0002" id="entity_user"><ellipse cx="663.9829" cy="51.2969" fill="#FFFFFF" rx="8" ry="8" style="stroke:#000000;stroke-width:0.5;"/><path d="M663.9829,59.2969 L663.9829,86.2969 M650.9829,67.2969 L676.9829,67.2969 M663.9829,86.2969 L650.9829,101.2969 M663.9829,86.2969 L676.9829,101.2969" fill="none" style="stroke:#000000;stroke-width:0.5;"/><text fill="#000000" font-family="sans-serif" font-size="14" lengthAdjust="spacing" textLength="62.9658" x="632.5" y="115.792">End User</text></g><!--entity dev--><g class="entity" data-entity="dev" data-source-line="47" data-uid="ent0003" id="entity_dev"><ellipse cx="1432.0015" cy="214.7969" fill="#FFFFFF" rx="8" ry="8" style="stroke:#000000;stroke-width:0.5;"/><path d="M1432.0015,222.7969 L1432.0015,249.7969 M1419.0015,230.7969 L1445.0015,230.7969 M1432.0015,249.7969 L1419.0015,264.7969 M1432.0015,249.7969 L1445.0015,264.7969" fill="none" style="stroke:#000000;stroke-width:0.5;"/><text fill="#000000" font-family="sans-serif" font-size="14" lengthAdjust="spacing" textLength="72.0029" x="1396" y="279.292">Developer</text></g><!--link dev to github--><g class="link" data-entity-1="dev" data-entity-2="github" data-source-line="118" data-uid="lnk36" id="link_dev_github"><path d="M1432,282.7469 C1432,319.8069 1432,369.2169 1432,403.7569" fill="none" id="dev-to-github" style="stroke:#181818;stroke-width:1;"/><polygon fill="#181818" points="1432,409.7569,1436,400.7569,1432,404.7569,1428,400.7569,1432,409.7569" style="stroke:#181818;stroke-width:1;"/><text fill="#000000" font-family="sans-serif" font-size="13" lengthAdjust="spacing" textLength="83.2749" x="1348" y="342.3238">Pushes Code</text></g><!--link github to dockerhub--><g class="link" data-entity-1="github" data-entity-2="dockerhub" data-source-line="119" data-uid="lnk37" id="link_github_dockerhub"><path d="M1423,472.9769 C1423,491.3369 1423,508.3869 1423,526.7269" fill="none" id="github-to-dockerhub" style="stroke:#181818;stroke-width:1;"/><polygon fill="#181818" points="1423,532.7269,1427,523.7269,1423,527.7269,1419,523.7269,1423,532.7269" style="stroke:#181818;stroke-width:1;"/><text fill="#000000" font-family="sans-serif" font-size="13" lengthAdjust="spacing" textLength="165.5596" x="1257" y="498.9138">CI Builds &amp; Pushes Image</text></g><!--link dockerhub to app_frontend--><g class="link" data-entity-1="dockerhub" data-entity-2="app_frontend" data-source-line="120" data-uid="lnk38" id="link_dockerhub_app_frontend"><path d="M1361.6,591.7969 C1240.99,591.7969 984.75,591.7969 984.75,591.7969 C984.75,591.7969 984.75,638.1069 984.75,669.5769" fill="none" id="dockerhub-to-app_frontend" style="stroke:#181818;stroke-width:1;stroke-dasharray:7,7;"/><polygon fill="#181818" points="984.75,675.5769,988.75,666.5769,984.75,670.5769,980.75,666.5769,984.75,675.5769" style="stroke:#181818;stroke-width:1;"/><text fill="#000000" font-family="sans-serif" font-size="13" lengthAdjust="spacing" textLength="102.6226" x="1028.28" y="587.8638">K8s Pulls Image</text></g><!--link user to ingress_gateway--><g class="link" data-entity-1="user" data-entity-2="ingress_gateway" data-source-line="123" data-uid="lnk39" id="link_user_ingress_gateway"><path d="M664,119.1269 C664,147.6369 664,180.0569 664,206.7869" fill="none" id="user-to-ingress_gateway" style="stroke:#181818;stroke-width:1;"/><polygon fill="#181818" points="664,212.7869,668,203.7869,664,207.7869,660,203.7869,664,212.7869" style="stroke:#181818;stroke-width:1;"/><text fill="#000000" font-family="sans-serif" font-size="13" lengthAdjust="spacing" textLength="91.019" x="572" y="162.0238">HTTP Request</text></g><!--link ingress_gateway to virtual_service--><g class="link" data-entity-1="ingress_gateway" data-entity-2="virtual_service" data-source-line="124" data-uid="lnk40" id="link_ingress_gateway_virtual_service"><path d="M664,275.9469 C664,312.7069 664,366.9969 664,403.7269" fill="none" id="ingress_gateway-to-virtual_service" style="stroke:#181818;stroke-width:1;"/><polygon fill="#181818" points="664,409.7269,668,400.7269,664,404.7269,660,400.7269,664,409.7269" style="stroke:#181818;stroke-width:1;"/><text fill="#000000" font-family="sans-serif" font-size="13" lengthAdjust="spacing" textLength="134.3672" x="665" y="338.9038">Reads Routing Rules</text></g><!--link virtual_service to svc_frontend--><g class="link" data-entity-1="virtual_service" data-entity-2="svc_frontend" data-source-line="125" data-uid="lnk41" id="link_virtual_service_svc_frontend"><path d="M719,472.9769 C719,494.3269 719,516.0069 719,535.2769" fill="none" id="virtual_service-to-svc_frontend" style="stroke:#181818;stroke-width:1;"/><polygon fill="#181818" points="719,541.2769,723,532.2769,719,536.2769,715,532.2769,719,541.2769" style="stroke:#181818;stroke-width:1;"/><text fill="#000000" font-family="sans-serif" font-size="13" lengthAdjust="spacing" textLength="46.833" x="672" y="503.1938">Route /</text></g><!--link virtual_service to svc_auth--><g class="link" data-entity-1="virtual_service" data-entity-2="svc_auth" data-source-line="126" data-uid="lnk42" id="link_virtual_service_svc_auth"><path d="M695,472.9669 C695,562.8069 695,812.7969 695,812.7969 C695,812.7969 690.76,812.7969 693.72,812.7969" fill="none" id="virtual_service-to-svc_auth" style="stroke:#181818;stroke-width:1;"/><polygon fill="#181818" points="699.72,812.7969,690.72,808.7969,694.72,812.7969,690.72,816.7969,699.72,812.7969" style="stroke:#181818;stroke-width:1;"/><text fill="#000000" font-family="sans-serif" font-size="13" lengthAdjust="spacing" textLength="76.375" x="618" y="658.3138">Route /auth</text></g><!--link virtual_service to svc_entry--><g class="link" data-entity-1="virtual_service" data-entity-2="svc_entry" data-source-line="127" data-uid="lnk43" id="link_virtual_service_svc_entry"><path d="M738.04,468.7969 C798.5,468.7969 874,468.7969 874,468.7969 C874,468.7969 874,712.6769 874,790.7669" fill="none" id="virtual_service-to-svc_entry" style="stroke:#181818;stroke-width:1;"/><polygon fill="#181818" points="874,796.7669,878,787.7669,874,791.7669,870,787.7669,874,796.7669" style="stroke:#181818;stroke-width:1;"/><text fill="#000000" font-family="sans-serif" font-size="13" lengthAdjust="spacing" textLength="81.2056" x="875" y="560.8638">Route /entry</text></g><!--link svc_frontend to sidecar_frontend--><g class="link" data-entity-1="svc_frontend" data-entity-2="sidecar_frontend" data-source-line="130" data-uid="lnk44" id="link_svc_frontend_sidecar_frontend"><path d="M772,587.4169 C772,612.0569 772,644.8369 772,669.5269" fill="none" id="svc_frontend-to-sidecar_frontend" style="stroke:#181818;stroke-width:1;"/><polygon fill="#181818" points="772,675.5269,776,666.5269,772,670.5269,768,666.5269,772,675.5269" style="stroke:#181818;stroke-width:1;"/><text fill="#000000" font-family="sans-serif" font-size="13" lengthAdjust="spacing" textLength="87.3945" x="684" y="627.5438">Load Balance</text></g><!--link svc_auth to sidecar_auth--><g class="link" data-entity-1="svc_auth" data-entity-2="sidecar_auth" data-source-line="131" data-uid="lnk45" id="link_svc_auth_sidecar_auth"><path d="M699.62,827.7969 C686.91,827.7969 677.5,827.7969 677.5,827.7969 C677.5,827.7969 677.5,896.4669 677.5,935.5569" fill="none" id="svc_auth-to-sidecar_auth" style="stroke:#181818;stroke-width:1;"/><polygon fill="#181818" points="677.5,941.5569,681.5,932.5569,677.5,936.5569,673.5,932.5569,677.5,941.5569" style="stroke:#181818;stroke-width:1;"/><text fill="#000000" font-family="sans-serif" font-size="13" lengthAdjust="spacing" textLength="87.3945" x="589.5" y="869.6838">Load Balance</text></g><!--link svc_entry to sidecar_entry--><g class="link" data-entity-1="svc_entry" data-entity-2="sidecar_entry" data-source-line="132" data-uid="lnk46" id="link_svc_entry_sidecar_entry"><path d="M879.5,843.0969 C879.5,870.1569 879.5,908.5269 879.5,935.5569" fill="none" id="svc_entry-to-sidecar_entry" style="stroke:#181818;stroke-width:1;"/><polygon fill="#181818" points="879.5,941.5569,883.5,932.5569,879.5,936.5569,875.5,932.5569,879.5,941.5569" style="stroke:#181818;stroke-width:1;"/><text fill="#000000" font-family="sans-serif" font-size="13" lengthAdjust="spacing" textLength="87.3945" x="791.5" y="888.3938">Load Balance</text></g><!--link sidecar_frontend to svc_auth--><g class="link" data-entity-1="sidecar_frontend" data-entity-2="svc_auth" data-source-line="135" data-uid="lnk47" id="link_sidecar_frontend_svc_auth"><path d="M767,721.8369 C767,743.2369 767,768.9269 767,790.4269" fill="none" id="sidecar_frontend-to-svc_auth" style="stroke:#181818;stroke-width:1;"/><polygon fill="#181818" points="767,796.4269,771,787.4269,767,791.4269,763,787.4269,767,796.4269" style="stroke:#181818;stroke-width:1;"/><text fill="#000000" font-family="sans-serif" font-size="13" lengthAdjust="spacing" textLength="89.1973" x="677" y="755.2038">mTLS API Call</text></g><!--link sidecar_frontend to svc_entry--><g class="link" data-entity-1="sidecar_frontend" data-entity-2="svc_entry" data-source-line="136" data-uid="lnk48" id="link_sidecar_frontend_svc_entry"><path d="M839,721.8369 C839,756.9469 839,819.7969 839,819.7969 C839,819.7969 846.21,819.7969 862.97,819.7969" fill="none" id="sidecar_frontend-to-svc_entry" style="stroke:#181818;stroke-width:1;"/><polygon fill="#181818" points="868.97,819.7969,859.97,815.7969,863.97,819.7969,859.97,823.7969,868.97,819.7969" style="stroke:#181818;stroke-width:1;"/><text fill="#000000" font-family="sans-serif" font-size="13" lengthAdjust="spacing" textLength="89.1973" x="840" y="781.8738">mTLS API Call</text></g><!--link sidecar_auth to db--><g class="link" data-entity-1="sidecar_auth" data-entity-2="db" data-source-line="139" data-uid="lnk49" id="link_sidecar_auth_db"><path d="M618.5,987.8669 C618.5,1032.3869 618.5,1125.7969 618.5,1125.7969 C618.5,1125.7969 963.27,1125.7969 1119.48,1125.7969" fill="none" id="sidecar_auth-to-db" style="stroke:#181818;stroke-width:1;"/><polygon fill="#181818" points="1125.48,1125.7969,1116.48,1121.7969,1120.48,1125.7969,1116.48,1129.7969,1125.48,1125.7969" style="stroke:#181818;stroke-width:1;"/><text fill="#000000" font-family="sans-serif" font-size="13" lengthAdjust="spacing" textLength="102.5464" x="700.02" y="1121.8638">TCP Connection</text></g><!--link sidecar_entry to db--><g class="link" data-entity-1="sidecar_entry" data-entity-2="db" data-source-line="140" data-uid="lnk50" id="link_sidecar_entry_db"><path d="M818,987.9269 C818,1029.0969 818,1110.7969 818,1110.7969 C818,1110.7969 1008.29,1110.7969 1119.09,1110.7969" fill="none" id="sidecar_entry-to-db" style="stroke:#181818;stroke-width:1;"/><polygon fill="#181818" points="1125.09,1110.7969,1116.09,1106.7969,1120.09,1110.7969,1116.09,1114.7969,1125.09,1110.7969" style="stroke:#181818;stroke-width:1;"/><text fill="#000000" font-family="sans-serif" font-size="13" lengthAdjust="spacing" textLength="102.5464" x="807.11" y="1106.8638">TCP Connection</text></g><!--link migrator to db--><g class="link" data-entity-1="migrator" data-entity-2="db" data-source-line="141" data-uid="lnk51" id="link_migrator_db"><path d="M261.33,987.8969 C261.33,1009.2769 261.33,1037.7969 261.33,1037.7969 C261.33,1037.7969 1199,1037.7969 1199,1037.7969 C1199,1037.7969 1199,1065.6469 1199,1089.4469" fill="none" id="migrator-to-db" style="stroke:#181818;stroke-width:1;"/><polygon fill="#181818" points="1199,1095.4469,1203,1086.4469,1199,1090.4469,1195,1086.4469,1199,1095.4469" style="stroke:#181818;stroke-width:1;"/><text fill="#000000" font-family="sans-serif" font-size="13" lengthAdjust="spacing" textLength="145.4185" x="588.04" y="1033.8638">Executes SQL Schema</text></g><!--link app_auth to secrets--><g class="link" data-entity-1="app_auth" data-entity-2="secrets" data-source-line="144" data-uid="lnk52" id="link_app_auth_secrets"><path d="M463,988.1069 C463,1014.4469 463,1051.4469 463,1080.7669" fill="none" id="app_auth-to-secrets" style="stroke:#181818;stroke-width:1;stroke-dasharray:7,7;"/><polygon fill="#181818" points="463,1086.7669,467,1077.7669,463,1081.7669,459,1077.7669,463,1086.7669" style="stroke:#181818;stroke-width:1;"/><text fill="#000000" font-family="sans-serif" font-size="13" lengthAdjust="spacing" textLength="101.4102" x="361" y="1033.5038">Reads Env Vars</text></g><!--link migrator to db_configmap--><g class="link" data-entity-1="migrator" data-entity-2="db_configmap" data-source-line="145" data-uid="lnk53" id="link_migrator_db_configmap"><path d="M218.67,988.1069 C218.67,1014.4469 218.67,1051.4469 218.67,1080.7669" fill="none" id="migrator-to-db_configmap" style="stroke:#181818;stroke-width:1;stroke-dasharray:7,7;"/><polygon fill="#181818" points="218.67,1086.7669,222.67,1077.7669,218.67,1081.7669,214.67,1077.7669,218.67,1086.7669" style="stroke:#181818;stroke-width:1;"/><text fill="#000000" font-family="sans-serif" font-size="13" lengthAdjust="spacing" textLength="104.2095" x="113.67" y="1033.5038">Mounts SQL File</text></g><!--SRC=[bLTRRzis57xNho1SO8qV4hVf9Oc15P1rIRp6ZcSv7GOC26Y9bhLGf4PIQOqX_ts7f6JBafrcVWXYyZktZ-TcbIbAq8pJJKgvGX4HJrbCq8J8DN95lCuKYLKf23g956O9ffoHlkEyHQUdfsZYJk_TMnGj_hmTJw_HoPIZu8SYWc6AV58GbX0MPqJsDTgHZnahiC0vYdbUW1wc8hK1wsLEpnktD6D4RGg2k51hthX8o0gNL2t83-NIB6KvQ40n_26YWHAyP4dC1IC2lN_Nk91hdF3l6KlH2bD9dCOLumb1_pe8FYCSFwP6XySf5-XDy3aCGzVUSP4GKPr_k1oTkvuv3pbJrUaxyt6UdKFX7ZKn2Y_3i6lYu_dLLV3-DIOIhF0IowD1XACWF6JXAhnm0_Sr5d2iuEgOUlFfgZ-aI412OPRIuuJxuNbuqLLsxd-u-7Zv6byPL-GbLpslgzs3ZzLZSziFml5ql1ZVJIEJlOube1Um1DrB8de8IrJ2F_M5Jvu8vKLrav0dnod0E4u92DLL4Msa8hdiLTxjCgDtdQcRSedcfE1_iPE8bmBAy1VaZGUUtpSgqqoj0T4ako7ly_WHCXvqWFYSf9bKOcC54tFLb8KeTy_G-rekmJkYY4GUBS51eVqp1Yekt8KxSgF04A6Fju5DSKuaV2D3b2phgFHdcv2z6PSg5IJw_HODq2BpHzQdfO4-DysC8w0RGIUP1r7qeYq8BkEdqf3PjDhWOwmXQCp0j9Je6Ylo7M-0cbkE4yWAYbbCXEKdiw27r8BG6__poAjAVi_1sVpEHrDt4aGprtkPZKBm1AnPHpFsDx2TSVOhONX9IT9lEhtzf_4ardkFirMMbW9hsHwytaNeXbv3j9r3LG1MpYQDFNg8pH4KrvL_6Vh757pBX2enhQQ0JYHUAjqnvoM5DcuqFbdCWwn6HLjbnLWheA-Nid9BzamQVWe_7Gya8h4WIe83ZvToW8j23gGzEjlWd5f7gXFG5lWN_iKnNTRg11UWBLcUodXDSbmLnhBY9ST5HytXEFmHSal5y-f9zYCmOwJt6r_2G4rqHPpcMIeEGbjEJcgS9abXc82sZLXvBlPadm_vQ3Cq2kRVnbuGGUUOtVcx8hA8K81ocChEGShDSmwt8ClnK_omQalPC4s8Et0hl8PcjoY6QBQ1MSu68SNoqMY6H-rgxZYL9IJ6OeW2ziGtrYDxj9NTgzOE9xhzQz0rZ83Yq7jUS-W4APfaiU1LHijsC6_raw-Fvsf5d0PjISDjYGPf5lXYFXZEhlcMgOwwrnEbHJiajOYoKGOCHiPFmpIeRPoa8zC8j8B-hqYx2byVgf4z4clpMolkaoZB2vgjCW8-ZpP_h3c2LHTvq3fJ3WfNd5B-7Kdexj3hbHxb_P_ITAVMC8vFQYK3exU_vOthQ-di-_UyMp_cmQrhbe-RyQnQGDxQPG25u8m3-mMSVgcN0YYmKgxr00VsdUfGt-zc_n34qQZCQ29rTx3mSGw3ozc1piw-x5KcIEdEFIifhS7WHprLZITw1pAcscDqY6uMYnbiDF-KH2gdVQr5shDa26WC_ksD7QUDqfBDngJ5G82WmL6eAO8jp5JJCQXDeYtMvYC4NVyqKbntTnlxdXT6GRix3L5puN2slZJ1bNCTeFMaYQnzsuEQ1wdsouN0grKMenFz0wxlTDnfyP4lRYFapiQGwvGUHzTcz-5Wrw-tF3U6lYcTlOXC-kcyMtWpFTQOtO6S_M2EeUh9jmC4FqXSwYLLhvAH6UEcAEncSozrSjQzqYHolI3KMGKD0tt3K7LRtHgrjmGCqGH-AoXh8yme-Gy0]--></g></svg>